<?xml version="1.0" encoding="UTF-8" standalone="no"?>
<!DOCTYPE svg PUBLIC "-//W3C//DTD SVG 1.1//EN" "http://www.w3.org/Graphics/SVG/1.1/DTD/svg11.dtd">
<svg width="100%" height="100%" viewBox="0 0 1000 1000" version="1.1" xmlns="http://www.w3.org/2000/svg" xmlns:xlink="http://www.w3.org/1999/xlink" xml:space="preserve" xmlns:serif="http://www.serif.com/" style="fill-rule:evenodd;clip-rule:evenodd;stroke-linejoin:round;stroke-miterlimit:2;">
    <g transform="matrix(2.40366,0,0,2.40366,-1072.49,-332.296)">
        <circle cx="654.208" cy="345.792" r="154.208" style="fill:white;"/>
    </g>
    <g transform="matrix(1.26713,0,0,1.26713,-260.554,-268.414)">
        <path d="M600.219,218.202C385.954,218.202 211.998,392.158 211.998,606.423C211.998,820.688 385.954,994.644 600.219,994.644C814.484,994.644 988.44,820.688 988.44,606.423C988.44,392.158 814.484,218.202 600.219,218.202ZM600.219,313.932C761.65,313.932 892.71,444.993 892.71,606.423C892.71,767.853 761.65,898.914 600.219,898.914C438.789,898.914 307.728,767.853 307.728,606.423C307.728,444.993 438.789,313.932 600.219,313.932Z" style="fill:url(#_Linear1);"/>
    </g>
    <g transform="matrix(55.1499,0,0,55.1499,-22920.9,-24377)">
        <g transform="matrix(12,0,0,12,421.288,455.269)">
            <path d="M0.435,-0.531C0.416,-0.554 0.396,-0.57 0.374,-0.58C0.351,-0.59 0.325,-0.595 0.295,-0.595C0.256,-0.595 0.226,-0.588 0.205,-0.573C0.183,-0.558 0.172,-0.539 0.172,-0.518C0.172,-0.505 0.177,-0.493 0.187,-0.483C0.196,-0.472 0.209,-0.463 0.224,-0.455C0.239,-0.446 0.256,-0.438 0.274,-0.431C0.292,-0.424 0.31,-0.417 0.327,-0.411L0.326,-0.411C0.345,-0.404 0.367,-0.396 0.392,-0.385C0.416,-0.374 0.439,-0.361 0.461,-0.344C0.482,-0.327 0.501,-0.307 0.516,-0.284C0.531,-0.261 0.538,-0.233 0.538,-0.201C0.538,-0.168 0.532,-0.138 0.519,-0.113C0.506,-0.087 0.489,-0.065 0.466,-0.048C0.443,-0.031 0.417,-0.017 0.387,-0.009C0.356,0 0.323,0.005 0.288,0.005C0.238,0.005 0.191,-0.006 0.148,-0.027C0.105,-0.048 0.062,-0.082 0.02,-0.129L0.108,-0.201C0.132,-0.168 0.159,-0.143 0.19,-0.128C0.22,-0.113 0.253,-0.105 0.289,-0.105C0.31,-0.105 0.329,-0.107 0.346,-0.111C0.363,-0.115 0.377,-0.121 0.39,-0.128C0.402,-0.135 0.412,-0.144 0.419,-0.154C0.426,-0.164 0.429,-0.175 0.429,-0.187C0.429,-0.204 0.424,-0.218 0.414,-0.231C0.404,-0.244 0.391,-0.255 0.376,-0.265C0.361,-0.274 0.343,-0.283 0.324,-0.29C0.305,-0.297 0.286,-0.303 0.268,-0.309L0.244,-0.318C0.221,-0.326 0.199,-0.335 0.178,-0.344C0.156,-0.353 0.136,-0.364 0.119,-0.379C0.102,-0.393 0.088,-0.411 0.077,-0.432C0.066,-0.453 0.061,-0.48 0.061,-0.511C0.061,-0.536 0.065,-0.56 0.074,-0.583C0.083,-0.606 0.096,-0.627 0.115,-0.645C0.134,-0.662 0.158,-0.676 0.187,-0.687C0.216,-0.698 0.252,-0.703 0.293,-0.703C0.317,-0.703 0.34,-0.701 0.362,-0.697C0.384,-0.693 0.405,-0.686 0.426,-0.677C0.447,-0.667 0.467,-0.654 0.487,-0.639C0.506,-0.623 0.526,-0.603 0.545,-0.58L0.452,-0.506L0.435,-0.531Z" style="fill-rule:nonzero;"/>
        </g>
    </g>
    <defs>
        <linearGradient id="_Linear1" x1="0" y1="0" x2="1" y2="0" gradientUnits="userSpaceOnUse" gradientTransform="matrix(560.602,495.747,-495.747,560.602,305.494,373.871)"><stop offset="0" style="stop-color:rgb(142,0,255);stop-opacity:1"/><stop offset="1" style="stop-color:rgb(0,254,255);stop-opacity:1"/></linearGradient>
    </defs>
</svg>
